<svg id="ICONS_HERE_" data-name="ICONS HERE!" xmlns="http://www.w3.org/2000/svg" viewBox="0 0 16 16"><defs><style>.cls-1{fill-rule:evenodd;}</style></defs><path class="cls-1" d="M16,6.65135l-.01562-1.39093A3.92534,3.92534,0,0,1,13.39789,5.31c-1.40137-.41943-2.5155-.01959-2.86872,1.16053a1.47959,1.47959,0,0,0,.08454,1.15557,1.45849,1.45849,0,0,1-.26477-.71411,2.31124,2.31124,0,0,0-2.46216-.99957A2.51551,2.51551,0,0,0,5.79669,9.05223c-.0061-.03314-.01843-.06165-.0238-.09528a2.62012,2.62012,0,0,1,1.22436-2.886C6.58472,4.4434,5.13434,3.85332,3.55463,3.62144L1.117,3.26353,0,10.87157l2.56885.37719a3.64775,3.64775,0,0,0,3.62591-1.04687A2.48933,2.48933,0,0,0,8.96838,11.3336q.08946-.01437.1756-.03308a1.56362,1.56362,0,0,1-.02405-1.25909l1.2945.433-1.225-.36664c-.287.95886-.01178,1.78461,2.00733,2.38886,1.77936.53259,2.92761.153,3.23944-.8888.25659-.85742-.32648-1.69494-1.56189-2.06469l-.7099-.21247c-.45178-.13519-.438-.2818-.41046-.374a.198.198,0,0,1,.16308-.14209,3.31864,3.31864,0,0,0,.51722.185c1.34606.40283,2.392-.03754,2.67065-.96869a1.32437,1.32437,0,0,0-.57251-1.5777A3.62688,3.62688,0,0,0,16,6.65135ZM4.72809,7.64622c-.2536,1.72712-.77881,2.186-1.79541,2.03675l-.44818-.0658.65161-4.438.4591.06745C4.55719,5.3878,4.98163,5.91911,4.72809,7.64622Zm3.38672-.552c.48462-.07751.65753.33338.74914.845l.01062.06647L7.6012,8.20946C7.54309,7.4196,7.71564,7.15807,8.11481,7.09422ZM9.99139,9.3651a1.99856,1.99856,0,0,1-1.05529.60925A.86854.86854,0,0,1,7.781,9.2722L10.00177,8.917l.01355-.04828a1.26915,1.26915,0,0,1,.77869-.7392l-.02-.11139-.033-.15155-.008-.03082a2.42625,2.42625,0,0,0,.28766.349,1.273,1.273,0,0,0-.92218.79883c-.11945.3991.02966.81713.58868,1.1535A1.33821,1.33821,0,0,1,9.99139,9.3651ZM12.145,10.67094c.40564.1214.47028.34168.41791.51685-.06073.20282-.2284.39374-.96595.173-.77441-.23175-.8833-.405-.77569-.76458l-.18-.0539a3.46626,3.46626,0,0,0,.28082-.27576c-.04968-.02288-.08557-.04846-.131-.0722a3.55968,3.55968,0,0,0,.67163.2724Zm1.33527-3.38745c-.1435.47943-.40332.64276-.7721.53235-.31348-.09381-.50165-.37115-.361-.84137A.57962.57962,0,0,1,13.1,6.5067C13.478,6.6198,13.61,6.8502,13.48029,7.28349Z"/></svg>