<svg id="ICONS_HERE_" data-name="ICONS HERE!" xmlns="http://www.w3.org/2000/svg" viewBox="0 0 16 16"><defs><style>.cls-1{fill:#211815;}</style></defs><path class="cls-1" d="M7.89391,2.57306a6.33394,6.33394,0,0,1,3.009-1.4983.80519.80519,0,0,1,.11137-.02017,3.30181,3.30181,0,0,1,.55167-.04552h.00873a3.27756,3.27756,0,0,1,3.14682,2.32309c.023.07845.04576.15945.06593.243l.00263.01523a8.81144,8.81144,0,0,1,.09327,3.36429l-.00494.03211a9.21665,9.21665,0,0,1-1.79414,4.28672,10.16508,10.16508,0,0,1-5.41813,3.601V14.8719a1.82471,1.82471,0,0,1-.6554.119,1.89783,1.89783,0,0,1-.50344-3.72771,10.99436,10.99436,0,0,0,4.94738-3.21646,5.30612,5.30612,0,0,0,.41495-.59975,6.80776,6.80776,0,0,0,.92868-3.257,1.13219,1.13219,0,0,0-.0126-.20743,1.07953,1.07953,0,0,0-.98456-.92119v-.005a3.44729,3.44729,0,0,0-1.33351.16948A5.0011,5.0011,0,0,0,8.67829,4.33172l-.00486.0051c.01021.0633.02025.13162.02766.2025v.01514a7.04884,7.04884,0,0,1,.038.75911c0,.17212-.00757.35182-.02272.53406a5.14,5.14,0,0,1-.71614,2.38121,2.90741,2.90741,0,0,1-.33148.43536,2.0047,2.0047,0,0,1-.17714.17969c-.01268.01523-.028.02791-.04058.04059a1.5478,1.5478,0,0,1-1.07932.53068H6.36606a1.0699,1.0699,0,0,1-.3095-.04486,1.36036,1.36036,0,0,1-.8704-1.04005c-.01021-.0405-.02033-.08347-.02774-.1266a2.56113,2.56113,0,0,1-.03811-.615c.00255-.02765.00255-.05572.00757-.08091a6.16771,6.16771,0,0,1,1.63964-3.8707l.01037-.01144a1.47507,1.47507,0,0,0-1.26724-.49151l-.00585.00058a3.21366,3.21366,0,0,0-2.20464,2.1606,3.71313,3.71313,0,0,0,.35478,3.10377c.48763.7094.266,1.83267-.61094,1.94107A1.53433,1.53433,0,0,1,1.39852,9.276,5.89471,5.89471,0,0,1,1.56973,4.6101,5.21378,5.21378,0,0,1,5.69116,1.66182l.02132.00009a2.7694,2.7694,0,0,1,2.17287.9016l.00856.00955Z"/></svg>