<svg id="ICONS_HERE_" data-name="ICONS HERE!" xmlns="http://www.w3.org/2000/svg" viewBox="0 0 16 16"><path d="M16,10V7.84615H10.76923L6.15385,3.23077,0,9.38462l2.46154,2.46153-.92308.92308H2.76923l.92308-.92308L1.23077,9.38462,6.15385,4.46154,9.53846,7.84615H8.61538V7.23077H3.69231L1.53846,9.38462,2.15385,10l1.53846,1.53846v1.23077H4.92308v-.61538H7.38462v.61538h3.6923V11.53846h-.92307l.61538-.61538H12l-.92308.92307H12l-.92308.92308H16v-.30769h-.92308L16,11.53846h-.92308l.61539-.61538L16,10.61538H14.76923L15.38462,10ZM14.76923,8.15385v.61538H12.92308V8.15385Zm-1.84615.92307h1.84615v.61539H12.92308Zm-1.23077.61539H9.84615V9.07692h1.84616Zm0-1.53846v.61538H9.84615V8.15385ZM7.38462,7.53846v.30769H4.30769l.30769-.30769ZM4,8.15385H7.38462v.30769H3.69231Zm0,2.46153L2.76923,9.38462l.61539-.61539H8.61538v.30769H3.69231V10l.61538.61538ZM4.92308,10h.61538v.61538Zm0-.30769V9.38462H7.38462v.30769ZM6.76923,10h.61539l-.61539.61538Zm.61539,1.84615H4.92308v-.30769H7.38462Zm0-.61538H4.92308v-.30769H7.38462Zm2.76923,1.23077h-.3077v-.61539h.3077Zm-1.53847-.61539v-.92307h.92308Zm0-1.23077H8L8.61538,10h3.07693l.61538.61538Zm5.84616,1.23077-.61539.61539H12.61538l.92308-.92308h-.92308l.61539-.61538h1.23077l-.92308.92307ZM12.92308,10h1.23077l-.61539.61538Z"/><polygon points="8 6.615 4.308 6.615 4 6.923 8.308 6.923 8 6.615"/></svg>